<svg xmlns="http://www.w3.org/2000/svg" width="1024" height="1024" viewBox="-92 -92 184 184">
  <path d="M0 0 C -9 -30 -6 -62 0 -80 C 6 -62 9 -30 0 0 Z" transform="rotate(0)" fill="#C6A15B"></path>
  <path d="M0 0 C -9 -30 -6 -62 0 -80 C 6 -62 9 -30 0 0 Z" transform="rotate(15)" fill="#C6A15B"></path>
  <path d="M0 0 C -9 -30 -6 -62 0 -80 C 6 -62 9 -30 0 0 Z" transform="rotate(30)" fill="#C6A15B"></path>
  <path d="M0 0 C -9 -30 -6 -62 0 -80 C 6 -62 9 -30 0 0 Z" transform="rotate(45)" fill="#C6A15B"></path>
  <path d="M0 0 C -9 -30 -6 -62 0 -80 C 6 -62 9 -30 0 0 Z" transform="rotate(60)" fill="#C6A15B"></path>
  <path d="M0 0 C -9 -30 -6 -62 0 -80 C 6 -62 9 -30 0 0 Z" transform="rotate(75)" fill="#C6A15B"></path>
  <path d="M0 0 C -9 -30 -6 -62 0 -80 C 6 -62 9 -30 0 0 Z" transform="rotate(90)" fill="#C6A15B"></path>
  <path d="M0 0 C -9 -30 -6 -62 0 -80 C 6 -62 9 -30 0 0 Z" transform="rotate(105)" fill="#C6A15B"></path>
  <path d="M0 0 C -9 -30 -6 -62 0 -80 C 6 -62 9 -30 0 0 Z" transform="rotate(120)" fill="#C6A15B"></path>
  <path d="M0 0 C -9 -30 -6 -62 0 -80 C 6 -62 9 -30 0 0 Z" transform="rotate(135)" fill="#C6A15B"></path>
  <path d="M0 0 C -9 -30 -6 -62 0 -80 C 6 -62 9 -30 0 0 Z" transform="rotate(150)" fill="#C6A15B"></path>
  <path d="M0 0 C -9 -30 -6 -62 0 -80 C 6 -62 9 -30 0 0 Z" transform="rotate(165)" fill="#C6A15B"></path>
  <path d="M0 0 C -9 -30 -6 -62 0 -80 C 6 -62 9 -30 0 0 Z" transform="rotate(180)" fill="#C6A15B"></path>
  <path d="M0 0 C -9 -30 -6 -62 0 -80 C 6 -62 9 -30 0 0 Z" transform="rotate(195)" fill="#C6A15B"></path>
  <path d="M0 0 C -9 -30 -6 -62 0 -80 C 6 -62 9 -30 0 0 Z" transform="rotate(210)" fill="#C6A15B"></path>
  <path d="M0 0 C -9 -30 -6 -62 0 -80 C 6 -62 9 -30 0 0 Z" transform="rotate(225)" fill="#C6A15B"></path>
  <path d="M0 0 C -9 -30 -6 -62 0 -80 C 6 -62 9 -30 0 0 Z" transform="rotate(240)" fill="#C6A15B"></path>
  <path d="M0 0 C -9 -30 -6 -62 0 -80 C 6 -62 9 -30 0 0 Z" transform="rotate(255)" fill="#C6A15B"></path>
  <path d="M0 0 C -9 -30 -6 -62 0 -80 C 6 -62 9 -30 0 0 Z" transform="rotate(270)" fill="#C6A15B"></path>
  <path d="M0 0 C -9 -30 -6 -62 0 -80 C 6 -62 9 -30 0 0 Z" transform="rotate(285)" fill="#C6A15B"></path>
  <path d="M0 0 C -9 -30 -6 -62 0 -80 C 6 -62 9 -30 0 0 Z" transform="rotate(300)" fill="#C6A15B"></path>
  <path d="M0 0 C -9 -30 -6 -62 0 -80 C 6 -62 9 -30 0 0 Z" transform="rotate(315)" fill="#C6A15B"></path>
  <path d="M0 0 C -9 -30 -6 -62 0 -80 C 6 -62 9 -30 0 0 Z" transform="rotate(330)" fill="#C6A15B"></path>
  <path d="M0 0 C -9 -30 -6 -62 0 -80 C 6 -62 9 -30 0 0 Z" transform="rotate(345)" fill="#C6A15B"></path>
  <path d="M0 0 C -6 -18 -4 -37 0 -48 C 4 -37 6 -18 0 0 Z" transform="rotate(15)" fill="#14524A"></path>
  <path d="M0 0 C -6 -18 -4 -37 0 -48 C 4 -37 6 -18 0 0 Z" transform="rotate(45)" fill="#14524A"></path>
  <path d="M0 0 C -6 -18 -4 -37 0 -48 C 4 -37 6 -18 0 0 Z" transform="rotate(75)" fill="#14524A"></path>
  <path d="M0 0 C -6 -18 -4 -37 0 -48 C 4 -37 6 -18 0 0 Z" transform="rotate(105)" fill="#14524A"></path>
  <path d="M0 0 C -6 -18 -4 -37 0 -48 C 4 -37 6 -18 0 0 Z" transform="rotate(135)" fill="#14524A"></path>
  <path d="M0 0 C -6 -18 -4 -37 0 -48 C 4 -37 6 -18 0 0 Z" transform="rotate(165)" fill="#14524A"></path>
  <path d="M0 0 C -6 -18 -4 -37 0 -48 C 4 -37 6 -18 0 0 Z" transform="rotate(195)" fill="#14524A"></path>
  <path d="M0 0 C -6 -18 -4 -37 0 -48 C 4 -37 6 -18 0 0 Z" transform="rotate(225)" fill="#14524A"></path>
  <path d="M0 0 C -6 -18 -4 -37 0 -48 C 4 -37 6 -18 0 0 Z" transform="rotate(255)" fill="#14524A"></path>
  <path d="M0 0 C -6 -18 -4 -37 0 -48 C 4 -37 6 -18 0 0 Z" transform="rotate(285)" fill="#14524A"></path>
  <path d="M0 0 C -6 -18 -4 -37 0 -48 C 4 -37 6 -18 0 0 Z" transform="rotate(315)" fill="#14524A"></path>
  <path d="M0 0 C -6 -18 -4 -37 0 -48 C 4 -37 6 -18 0 0 Z" transform="rotate(345)" fill="#14524A"></path>
  <circle r="13" fill="#C6A15B"></circle>
  <circle r="5.5" fill="#14524A"></circle>
</svg>